<mxfile host="app.diagrams.net" modified="2020-11-20T02:29:34.834Z" agent="5.0 (Macintosh; Intel Mac OS X 10_15_2) AppleWebKit/537.36 (KHTML, like Gecko) Chrome/86.0.4240.193 Safari/537.36" etag="9_oeLf5UIDmOo4-lY5e7" version="13.6.10" type="github">
  <diagram id="eHoIP6acbh5_LsdwvxZu" name="Page-1">
    <mxGraphModel dx="946" dy="526" grid="1" gridSize="10" guides="1" tooltips="1" connect="1" arrows="1" fold="1" page="1" pageScale="1" pageWidth="827" pageHeight="1169" math="0" shadow="0">
      <root>
        <mxCell id="0" />
        <mxCell id="1" parent="0" />
        <mxCell id="--Ts0FR9YCNWqX0BOgV7-4" value="" style="verticalLabelPosition=bottom;verticalAlign=top;html=1;shape=mxgraph.basic.rect;fillColor2=none;strokeWidth=1;size=20;indent=5;" parent="1" vertex="1">
          <mxGeometry x="142" y="201.5" width="115" height="47" as="geometry" />
        </mxCell>
        <mxCell id="--Ts0FR9YCNWqX0BOgV7-5" value="" style="shape=cylinder3;whiteSpace=wrap;html=1;boundedLbl=1;backgroundOutline=1;size=15;" parent="1" vertex="1">
          <mxGeometry x="22" y="227" width="80" height="73.5" as="geometry" />
        </mxCell>
        <mxCell id="--Ts0FR9YCNWqX0BOgV7-29" value="" style="edgeStyle=orthogonalEdgeStyle;rounded=0;orthogonalLoop=1;jettySize=auto;html=1;strokeWidth=3;strokeColor=#FF0000;" parent="1" edge="1">
          <mxGeometry relative="1" as="geometry">
            <mxPoint x="267" y="226" as="sourcePoint" />
            <mxPoint x="313" y="225" as="targetPoint" />
            <Array as="points">
              <mxPoint x="260" y="226" />
              <mxPoint x="260" y="225" />
            </Array>
          </mxGeometry>
        </mxCell>
        <mxCell id="--Ts0FR9YCNWqX0BOgV7-6" value="&lt;font style=&quot;font-size: 16px&quot;&gt;数据探索分析&lt;/font&gt;" style="text;html=1;strokeColor=none;fillColor=none;align=center;verticalAlign=middle;whiteSpace=wrap;rounded=0;" parent="1" vertex="1">
          <mxGeometry x="154" y="217.5" width="100" height="20" as="geometry" />
        </mxCell>
        <mxCell id="--Ts0FR9YCNWqX0BOgV7-7" value="" style="verticalLabelPosition=bottom;verticalAlign=top;html=1;shape=mxgraph.basic.rect;fillColor2=none;strokeWidth=1;size=20;indent=5;" parent="1" vertex="1">
          <mxGeometry x="312" y="201" width="110" height="50" as="geometry" />
        </mxCell>
        <mxCell id="--Ts0FR9YCNWqX0BOgV7-30" value="" style="edgeStyle=orthogonalEdgeStyle;rounded=0;orthogonalLoop=1;jettySize=auto;html=1;strokeColor=#FF0000;strokeWidth=3;" parent="1" edge="1">
          <mxGeometry relative="1" as="geometry">
            <mxPoint x="424" y="227" as="sourcePoint" />
            <mxPoint x="478" y="225" as="targetPoint" />
            <Array as="points">
              <mxPoint x="424" y="225" />
            </Array>
          </mxGeometry>
        </mxCell>
        <mxCell id="--Ts0FR9YCNWqX0BOgV7-8" value="&lt;span style=&quot;font-size: 16px&quot;&gt;特征工程&lt;/span&gt;" style="text;html=1;strokeColor=none;fillColor=none;align=center;verticalAlign=middle;whiteSpace=wrap;rounded=0;" parent="1" vertex="1">
          <mxGeometry x="316" y="217" width="100" height="20" as="geometry" />
        </mxCell>
        <mxCell id="--Ts0FR9YCNWqX0BOgV7-10" value="" style="verticalLabelPosition=bottom;verticalAlign=top;html=1;shape=mxgraph.basic.rect;fillColor2=none;strokeWidth=1;size=20;indent=5;" parent="1" vertex="1">
          <mxGeometry x="280" y="320" width="120" height="50" as="geometry" />
        </mxCell>
        <mxCell id="--Ts0FR9YCNWqX0BOgV7-11" value="&lt;span style=&quot;font-size: 16px&quot;&gt;验证策略设计&lt;/span&gt;" style="text;html=1;strokeColor=none;fillColor=none;align=center;verticalAlign=middle;whiteSpace=wrap;rounded=0;" parent="1" vertex="1">
          <mxGeometry x="289" y="335" width="100" height="20" as="geometry" />
        </mxCell>
        <mxCell id="--Ts0FR9YCNWqX0BOgV7-12" value="" style="verticalLabelPosition=bottom;verticalAlign=top;html=1;shape=mxgraph.basic.rect;fillColor2=none;strokeWidth=1;size=20;indent=5;" parent="1" vertex="1">
          <mxGeometry x="480" y="200" width="110" height="50" as="geometry" />
        </mxCell>
        <mxCell id="--Ts0FR9YCNWqX0BOgV7-13" value="&lt;span style=&quot;font-size: 16px&quot;&gt;模型训练,&lt;br&gt;验证,测试&lt;/span&gt;" style="text;html=1;strokeColor=none;fillColor=none;align=center;verticalAlign=middle;whiteSpace=wrap;rounded=0;" parent="1" vertex="1">
          <mxGeometry x="484" y="215" width="100" height="20" as="geometry" />
        </mxCell>
        <mxCell id="--Ts0FR9YCNWqX0BOgV7-14" value="" style="verticalLabelPosition=bottom;verticalAlign=top;html=1;shape=mxgraph.basic.rect;fillColor2=none;strokeWidth=1;size=20;indent=5;" parent="1" vertex="1">
          <mxGeometry x="680" y="198.5" width="110" height="50" as="geometry" />
        </mxCell>
        <mxCell id="--Ts0FR9YCNWqX0BOgV7-15" value="&lt;span style=&quot;font-size: 16px&quot;&gt;模型融合集成&lt;/span&gt;" style="text;html=1;strokeColor=none;fillColor=none;align=center;verticalAlign=middle;whiteSpace=wrap;rounded=0;" parent="1" vertex="1">
          <mxGeometry x="684" y="213.5" width="100" height="20" as="geometry" />
        </mxCell>
        <mxCell id="--Ts0FR9YCNWqX0BOgV7-16" value="" style="verticalLabelPosition=bottom;verticalAlign=top;html=1;shape=mxgraph.basic.rect;fillColor2=none;strokeWidth=1;size=20;indent=5;" parent="1" vertex="1">
          <mxGeometry x="604" y="90" width="120" height="50" as="geometry" />
        </mxCell>
        <mxCell id="--Ts0FR9YCNWqX0BOgV7-17" value="&lt;span style=&quot;font-size: 16px&quot;&gt;模型结果分析&lt;/span&gt;" style="text;html=1;strokeColor=none;fillColor=none;align=center;verticalAlign=middle;whiteSpace=wrap;rounded=0;" parent="1" vertex="1">
          <mxGeometry x="614" y="105" width="100" height="20" as="geometry" />
        </mxCell>
        <mxCell id="--Ts0FR9YCNWqX0BOgV7-18" value="" style="verticalLabelPosition=bottom;verticalAlign=top;html=1;shape=mxgraph.basic.rect;fillColor2=none;strokeWidth=1;size=20;indent=5;" parent="1" vertex="1">
          <mxGeometry x="600" y="320" width="110" height="50" as="geometry" />
        </mxCell>
        <mxCell id="--Ts0FR9YCNWqX0BOgV7-19" value="&lt;span style=&quot;font-size: 16px&quot;&gt;模型后处理&lt;/span&gt;" style="text;html=1;strokeColor=none;fillColor=none;align=center;verticalAlign=middle;whiteSpace=wrap;rounded=0;" parent="1" vertex="1">
          <mxGeometry x="604" y="335" width="100" height="20" as="geometry" />
        </mxCell>
        <mxCell id="--Ts0FR9YCNWqX0BOgV7-21" value="" style="ellipse;whiteSpace=wrap;html=1;" parent="1" vertex="1">
          <mxGeometry x="17" y="151.5" width="90" height="61.5" as="geometry" />
        </mxCell>
        <mxCell id="--Ts0FR9YCNWqX0BOgV7-24" value="&lt;font style=&quot;font-size: 16px&quot;&gt;数据&lt;/font&gt;" style="text;html=1;strokeColor=none;fillColor=none;align=center;verticalAlign=middle;whiteSpace=wrap;rounded=0;" parent="1" vertex="1">
          <mxGeometry x="42" y="267" width="40" height="20" as="geometry" />
        </mxCell>
        <mxCell id="--Ts0FR9YCNWqX0BOgV7-25" value="&lt;font style=&quot;font-size: 16px&quot;&gt;问题描述,背景&lt;/font&gt;" style="text;html=1;strokeColor=none;fillColor=none;align=center;verticalAlign=middle;whiteSpace=wrap;rounded=0;" parent="1" vertex="1">
          <mxGeometry x="27" y="174" width="70" height="18.5" as="geometry" />
        </mxCell>
        <mxCell id="--Ts0FR9YCNWqX0BOgV7-31" value="" style="edgeStyle=orthogonalEdgeStyle;rounded=0;orthogonalLoop=1;jettySize=auto;html=1;strokeColor=#FF0000;strokeWidth=3;entryX=0.009;entryY=0.53;entryDx=0;entryDy=0;entryPerimeter=0;" parent="1" target="--Ts0FR9YCNWqX0BOgV7-14" edge="1">
          <mxGeometry relative="1" as="geometry">
            <mxPoint x="594" y="227" as="sourcePoint" />
            <mxPoint x="670" y="225" as="targetPoint" />
            <Array as="points">
              <mxPoint x="594" y="225" />
            </Array>
          </mxGeometry>
        </mxCell>
        <mxCell id="--Ts0FR9YCNWqX0BOgV7-32" value="" style="edgeStyle=orthogonalEdgeStyle;rounded=0;orthogonalLoop=1;jettySize=auto;html=1;strokeWidth=3;strokeColor=#FF0000;" parent="1" edge="1">
          <mxGeometry relative="1" as="geometry">
            <mxPoint x="105" y="224" as="sourcePoint" />
            <mxPoint x="140" y="223" as="targetPoint" />
            <Array as="points">
              <mxPoint x="105" y="223" />
            </Array>
          </mxGeometry>
        </mxCell>
        <mxCell id="--Ts0FR9YCNWqX0BOgV7-37" value="" style="endArrow=classic;html=1;strokeColor=#FF0000;strokeWidth=3;" parent="1" edge="1">
          <mxGeometry width="50" height="50" relative="1" as="geometry">
            <mxPoint x="260" y="230" as="sourcePoint" />
            <mxPoint x="320" y="310" as="targetPoint" />
          </mxGeometry>
        </mxCell>
        <mxCell id="--Ts0FR9YCNWqX0BOgV7-38" value="" style="endArrow=classic;html=1;strokeColor=#FF0000;strokeWidth=3;entryX=-0.045;entryY=0.74;entryDx=0;entryDy=0;entryPerimeter=0;" parent="1" target="--Ts0FR9YCNWqX0BOgV7-12" edge="1">
          <mxGeometry width="50" height="50" relative="1" as="geometry">
            <mxPoint x="340" y="310" as="sourcePoint" />
            <mxPoint x="510" y="260" as="targetPoint" />
          </mxGeometry>
        </mxCell>
        <mxCell id="--Ts0FR9YCNWqX0BOgV7-39" value="" style="endArrow=classic;html=1;strokeWidth=3;dashed=1;strokeColor=#00994D;entryX=0.482;entryY=-0.1;entryDx=0;entryDy=0;entryPerimeter=0;" parent="1" edge="1" target="--Ts0FR9YCNWqX0BOgV7-18">
          <mxGeometry width="50" height="50" relative="1" as="geometry">
            <mxPoint x="594" y="227" as="sourcePoint" />
            <mxPoint x="650" y="310" as="targetPoint" />
          </mxGeometry>
        </mxCell>
        <mxCell id="--Ts0FR9YCNWqX0BOgV7-41" value="" style="endArrow=classic;html=1;strokeWidth=3;entryX=0.436;entryY=1.05;entryDx=0;entryDy=0;entryPerimeter=0;dashed=1;strokeColor=#00994D;" parent="1" target="--Ts0FR9YCNWqX0BOgV7-14" edge="1">
          <mxGeometry width="50" height="50" relative="1" as="geometry">
            <mxPoint x="670" y="310" as="sourcePoint" />
            <mxPoint x="694" y="248.5" as="targetPoint" />
          </mxGeometry>
        </mxCell>
        <mxCell id="--Ts0FR9YCNWqX0BOgV7-42" value="" style="endArrow=classic;html=1;strokeColor=#FF0000;strokeWidth=3;dashed=1;exitX=1.027;exitY=0.36;exitDx=0;exitDy=0;exitPerimeter=0;" parent="1" source="--Ts0FR9YCNWqX0BOgV7-12" edge="1">
          <mxGeometry width="50" height="50" relative="1" as="geometry">
            <mxPoint x="570" y="192.5" as="sourcePoint" />
            <mxPoint x="660" y="144" as="targetPoint" />
          </mxGeometry>
        </mxCell>
        <mxCell id="--Ts0FR9YCNWqX0BOgV7-43" value="" style="endArrow=classic;html=1;strokeColor=#FF0000;strokeWidth=3;dashed=1;exitX=0.391;exitY=-0.01;exitDx=0;exitDy=0;exitPerimeter=0;" parent="1" source="--Ts0FR9YCNWqX0BOgV7-14" edge="1">
          <mxGeometry width="50" height="50" relative="1" as="geometry">
            <mxPoint x="730" y="198.5" as="sourcePoint" />
            <mxPoint x="664" y="144" as="targetPoint" />
          </mxGeometry>
        </mxCell>
        <mxCell id="--Ts0FR9YCNWqX0BOgV7-45" value="" style="endArrow=none;html=1;dashed=1;strokeColor=#FF0000;strokeWidth=3;entryX=-0.017;entryY=0.48;entryDx=0;entryDy=0;entryPerimeter=0;" parent="1" target="--Ts0FR9YCNWqX0BOgV7-16" edge="1">
          <mxGeometry width="50" height="50" relative="1" as="geometry">
            <mxPoint x="201.98" y="114.5" as="sourcePoint" />
            <mxPoint x="590" y="114.5" as="targetPoint" />
          </mxGeometry>
        </mxCell>
        <mxCell id="--Ts0FR9YCNWqX0BOgV7-46" value="" style="endArrow=classic;html=1;strokeColor=#FF0000;strokeWidth=3;dashed=1;exitX=1.027;exitY=0.36;exitDx=0;exitDy=0;exitPerimeter=0;" parent="1" edge="1">
          <mxGeometry width="50" height="50" relative="1" as="geometry">
            <mxPoint x="205.01000000000005" y="116" as="sourcePoint" />
            <mxPoint x="205" y="200" as="targetPoint" />
          </mxGeometry>
        </mxCell>
        <mxCell id="--Ts0FR9YCNWqX0BOgV7-47" value="" style="endArrow=classic;html=1;strokeColor=#FF0000;strokeWidth=3;dashed=1;exitX=1.027;exitY=0.36;exitDx=0;exitDy=0;exitPerimeter=0;" parent="1" edge="1">
          <mxGeometry width="50" height="50" relative="1" as="geometry">
            <mxPoint x="366.51" y="117.5" as="sourcePoint" />
            <mxPoint x="366.5" y="201.5" as="targetPoint" />
          </mxGeometry>
        </mxCell>
        <mxCell id="--Ts0FR9YCNWqX0BOgV7-48" value="" style="endArrow=classic;html=1;strokeWidth=3;dashed=1;exitX=1.027;exitY=0.36;exitDx=0;exitDy=0;exitPerimeter=0;strokeColor=#007FFF;" parent="1" edge="1">
          <mxGeometry width="50" height="50" relative="1" as="geometry">
            <mxPoint x="333.01" y="120" as="sourcePoint" />
            <mxPoint x="333" y="312.5" as="targetPoint" />
          </mxGeometry>
        </mxCell>
        <mxCell id="--Ts0FR9YCNWqX0BOgV7-49" value="" style="verticalLabelPosition=bottom;verticalAlign=top;html=1;shape=mxgraph.basic.rect;fillColor2=none;strokeWidth=1;size=20;indent=5;" parent="1" vertex="1">
          <mxGeometry x="329" y="40" width="115" height="50" as="geometry" />
        </mxCell>
        <mxCell id="--Ts0FR9YCNWqX0BOgV7-50" value="&lt;span style=&quot;font-size: 16px&quot;&gt;模型选择&lt;/span&gt;" style="text;html=1;strokeColor=none;fillColor=none;align=center;verticalAlign=middle;whiteSpace=wrap;rounded=0;" parent="1" vertex="1">
          <mxGeometry x="336" y="55" width="100" height="20" as="geometry" />
        </mxCell>
        <mxCell id="--Ts0FR9YCNWqX0BOgV7-51" value="" style="endArrow=classic;html=1;strokeWidth=3;dashed=1;strokeColor=#9933FF;" parent="1" edge="1">
          <mxGeometry width="50" height="50" relative="1" as="geometry">
            <mxPoint x="386" y="90" as="sourcePoint" />
            <mxPoint x="386" y="201" as="targetPoint" />
          </mxGeometry>
        </mxCell>
        <mxCell id="keeW15oTlVxWQdOHFza3-1" value="" style="verticalLabelPosition=bottom;verticalAlign=top;html=1;shape=mxgraph.basic.rect;fillColor2=none;strokeWidth=1;size=20;indent=5;" vertex="1" parent="1">
          <mxGeometry x="129.5" y="320" width="117.5" height="50" as="geometry" />
        </mxCell>
        <mxCell id="keeW15oTlVxWQdOHFza3-2" value="&lt;span style=&quot;font-size: 16px&quot;&gt;样本构建&lt;br&gt;优化指标设计&lt;br&gt;&lt;/span&gt;" style="text;html=1;strokeColor=none;fillColor=none;align=center;verticalAlign=middle;whiteSpace=wrap;rounded=0;" vertex="1" parent="1">
          <mxGeometry x="140" y="335" width="100" height="20" as="geometry" />
        </mxCell>
        <mxCell id="keeW15oTlVxWQdOHFza3-3" value="" style="endArrow=classic;html=1;strokeWidth=3;dashed=1;strokeColor=#00994D;" edge="1" parent="1">
          <mxGeometry width="50" height="50" relative="1" as="geometry">
            <mxPoint x="199" y="250" as="sourcePoint" />
            <mxPoint x="199" y="319" as="targetPoint" />
          </mxGeometry>
        </mxCell>
        <mxCell id="keeW15oTlVxWQdOHFza3-4" value="" style="endArrow=classic;html=1;strokeWidth=3;dashed=1;exitX=1.009;exitY=0.54;exitDx=0;exitDy=0;exitPerimeter=0;strokeColor=#009900;" edge="1" parent="1" source="keeW15oTlVxWQdOHFza3-1">
          <mxGeometry width="50" height="50" relative="1" as="geometry">
            <mxPoint x="250" y="364" as="sourcePoint" />
            <mxPoint x="281" y="348" as="targetPoint" />
          </mxGeometry>
        </mxCell>
        <mxCell id="keeW15oTlVxWQdOHFza3-6" value="" style="endArrow=classic;html=1;strokeWidth=3;dashed=1;strokeColor=#00994D;" edge="1" parent="1">
          <mxGeometry width="50" height="50" relative="1" as="geometry">
            <mxPoint x="660" y="310" as="sourcePoint" />
            <mxPoint x="660" y="150" as="targetPoint" />
          </mxGeometry>
        </mxCell>
      </root>
    </mxGraphModel>
  </diagram>
</mxfile>
